<svg width="23" height="23" viewBox="0 0 23 23" fill="none" xmlns="http://www.w3.org/2000/svg">
<circle cx="11.5" cy="11.5" r="10.5" fill="#FF4E27"/>
<path d="M5.71391 7.82227C5.68462 7.76367 5.66997 7.7002 5.66997 7.63184C5.66997 7.55859 5.71391 7.4707 5.80181 7.36816C5.89458 7.26074 6.02397 7.20703 6.18999 7.20703H7.79399C8.17485 7.20703 8.46538 7.43896 8.66558 7.90283L11.5 14.2163L14.3345 7.90283C14.5347 7.44385 14.8252 7.21191 15.2061 7.20703H16.8101C16.981 7.20703 17.1104 7.26074 17.1983 7.36816C17.2862 7.4707 17.3301 7.55859 17.3301 7.63184C17.3301 7.7002 17.3179 7.76367 17.2935 7.82227L13.0748 16.9629C12.8453 17.4609 12.4961 17.71 12.0274 17.71H10.9727C10.504 17.71 10.1548 17.4609 9.92534 16.9629L5.71391 7.82227Z" fill="#FBEACA"/>
</svg>
